<?xml version="1.0" encoding="utf-8"?>
<!-- Generator: Adobe Illustrator 19.2.1, SVG Export Plug-In . SVG Version: 6.00 Build 0)  -->
<svg version="1.1" id="layer" xmlns="http://www.w3.org/2000/svg" xmlns:xlink="http://www.w3.org/1999/xlink" x="0px" y="0px"
	 viewBox="0 0 652 652" style="enable-background:new 0 0 652 652;" xml:space="preserve">
<style type="text/css">
	.st0{fill:#313336;}
	.st1{fill:#FE8607;}
	.st2{fill:#282A2E;}
	.st3{fill:#292B2F;}
	.st4{fill:#FE8504;}
	.st5{fill:#FE8606;}
	.st6{fill:#FE8506;}
	.st7{fill:#2A2C2F;}
</style>
<g id="Layer_2">
	<g id="Layer_1-2">
		<g id="LSURUe.tif">
			<path class="st0" d="M234.4,265.1v-1.3h21v1.3H234.4z"/>
			<path class="st1" d="M544.7,285.2h20.6l0.8,5.2c0.5,0,0.9,0,1.2-0.1c15.6-11.7,38.7-6.2,47.8,11.8c5.9,11.4,6.5,24.8,1.8,36.8
				c-7.4,20.1-34.3,26.7-51,13.8v25.7h-21.2V285.2z M565.8,322c0,9.8,7.3,17.6,16.4,17.7c9.1,0,16.1-7.4,16.3-17
				c0.2-9.9-7-17.9-16.1-18S565.8,312.3,565.8,322L565.8,322z"/>
			<path class="st2" d="M234.4,265.1h20.9v26.6c6.7-5.9,15.6-8.6,24.5-7.3c11,1.2,18,7,21,17.7c0.8,2.5,1.3,5.1,1.4,7.7
				c0.1,15.9,0,31.7,0,48h-21.4v-22.2c0-5.9,0.1-11.8,0-17.7c-0.2-8.3-4-13.2-10.3-13.5c-7.4-0.1-13.4,5.8-13.6,13.1
				c-0.4,8.5-0.1,17-0.1,25.5c0,4.8,0,9.5,0,14.7h-22.1c-0.2-1-0.4-1.9-0.4-2.9c0-29.3,0-58.5,0-87.8
				C234.2,266.4,234.3,265.8,234.4,265.1z"/>
			<path class="st3" d="M146.5,328.1H94.6c3.7,14.3,17.2,17.2,29.1,6.7H144c-3.6,16.5-23.5,27.5-41.9,23.4
				c-19.7-4.6-32.1-24-28-43.8c4.6-21.3,23.5-33.8,44.4-29.5C137.3,288.7,150.5,308.7,146.5,328.1z M125.6,313.4
				c-2.7-7.9-7.8-11.6-15.6-11.5s-12.6,4-14.7,11.5H125.6z"/>
			<path class="st4" d="M453.5,322.1c1,18.7-13,37.2-37.6,37.3c-22.2,0.1-37.7-15.7-37.6-38.1c0.1-21.9,15.9-37.8,37.7-37.4
				C441.6,284.3,454.8,303.4,453.5,322.1z M432.3,321.7c0-10.1-6.8-17.3-16.3-17.3s-16.4,7.3-16.4,17.3s6.7,17.2,16.4,17.2
				C425.7,338.9,432.3,331.8,432.3,321.7z"/>
			<path class="st5" d="M462.7,285.5h22.1V302c0,8.3,0,16.6,0,24.9c0,8.3,4.3,12.3,12.7,12.1c7.3-0.1,12.8-4.4,12.4-11.9
				c-0.6-11.5-0.1-23.1-0.1-34.7v-6.9h21.6c0.2,1.6,0.4,3.2,0.5,4.8c0,12-0.4,24,0.1,36c0.8,17.4-9.5,29.7-28,32.7
				c-8.9,1.6-18.1,0.1-26.1-4.1c-9.3-4.9-14.6-12.7-15-23c-0.6-13.3-0.2-26.6-0.2-40L462.7,285.5z"/>
			<path class="st3" d="M226.3,316h-20.5c-2.4-4.6-5.2-9.5-11-10.8c-3.4-0.7-6.9-0.7-10.2,0.2c-7.4,2.1-11.1,8.7-10.7,17.5
				c0.4,7.7,5,13.7,11.9,15.5c8.3,2.1,14.3-1.2,20-11.2h19.9c0.8,16.3-14.6,31.2-33.9,31.9c-23.3,0.8-36.9-14.6-38.6-32.1
				c-2.2-22.8,10.6-40.1,31.3-42.3C206.7,282.2,223.5,294.7,226.3,316z"/>
			<path class="st2" d="M30.5,270.5H52v15.3h15.3v18.3h-15c0,10.3-0.2,19.9,0,29.4c0.1,4.5,2.8,7.1,7.5,7.6c2.6,0.1,5.2,0.1,7.8,0
				c0.2,0.6,0.4,1.3,0.5,2c0.3,4.8,0.5,9.5,0.7,14.8c-9,2.3-17.8,2.6-26.2-1.4c-7.7-3.6-11-10.5-11.4-18.6
				c-0.4-8.1-0.2-16.1-0.2-24.1c0-2.8,0-5.6,0-9.1L20,304.2v-17.9h10.5V270.5z"/>
			<path class="st6" d="M348.5,314.2c3.9,1.4,7.7,3,11.4,4.8c14.7,8.1,11.6,26.9,1.7,34.1c-12.3,9-37.3,7.7-46.2-2.7l12.5-14
				c2.9,5.1,8.9,7.6,14.6,6c2.4-0.6,4.5-2.1,5.7-4.3c1.3-3.2-1.5-5-4.3-6.2l-8.5-3.4L348.5,314.2z"/>
			<path class="st7" d="M348.5,314.2l-13,14.3c-4.4-1.9-9-3.4-13-5.8c-11.7-7.1-12.7-22.3-2.4-31.6c11.5-10.3,36.2-9.5,44.9,1.7
				l-12,13.6c-3.2-5.3-7.5-8-13.3-6.3c-2.4,0.7-4.4,2.3-5.6,4.5c-1.2,2.9,1.6,4.7,4.1,5.7C341.6,311.6,345.1,312.9,348.5,314.2z"/>
		</g>
	</g>
</g>
</svg>
